<svg xmlns="http://www.w3.org/2000/svg" width="132" height="79" fill="none"><g fill-rule="evenodd" clip-path="url(#a)" clip-rule="evenodd"><path fill="url(#b)" d="M76.543 35.59c-2.151-2.03-3.648-4.74-4.519-7.524-2.28-7.293-.271-14.648-5.915-21.273l12.98-3.394c.922.567 1.782 1.15 2.673 2.398.429 1.086.762 2.376 1.029 3.752 1.15 5.949.764 9.665 2.907 15.486-.97 3.374-3.241 12.19-9.155 10.555Z"/><path fill="url(#c)" d="M76.543 35.59c1.672 1.386 5.421 3.778 10.658 3.597 3.141-.108 5.99-1.343 8.239-3.292 2.045-1.774 3.665-4.143 4.5-6.785.69-2.177 1.093-4.357 1.642-6.5 1.135-4.433 2.246-8.81 3.253-13.375.837-3.787-.569-8.751-6.06-9.22-5.087-.435-7.072 2.649-8.016 6.525-.365 1.498-.724 2.966-1.086 4.457-.621 2.563-1.225 5.145-1.883 7.732-.524 2.061-1.43 4.04-2.026 6.077-.93 3.182-3.169 12.457-9.221 10.784Z"/><path fill="url(#d)" d="M47.871 35.62a15.6 15.6 0 0 1-1.931-2.087c-1.223-1.633-1.935-3.61-2.532-5.515-2.28-7.292-.165-14.675-5.808-21.3L52.2 4.41c.778 1.24 1.347 2.242 1.728 3.463.152.487.24 1.022.352 1.601.807 4.176.79 12.086 2.994 15.563-1.467 5.048-2.3 10.005-7.207 10.905-.588.107-1.614.066-2.197-.323Z"/><path fill="url(#e)" d="M27.227 29.965c-2.327 9.07 10.32 12.945 13.816 4.796.437-1.017.668-2.206.916-3.344.326-1.497.755-3.027 1.09-4.476.75-3.246 3.009-12.638 4.279-16.212.508-1.43 1.371-4.792 3.372-5.522.953-.348 2.249.036 2.63 1.082-.11-.57-1.162-1.916-1.56-2.42C50.106 1.767 46.792 0 44.06 0c-1.733 0-3.223.184-4.535.63-1.12.38-2.114.966-2.989 1.63-1.455 1.103-2.648 2.53-3.462 4.495-.254.614-.49 1.222-.697 1.92-2.163 7.29-3.35 14.277-5.15 21.29Z"/><path fill="url(#f)" d="M71.376 28.674c.563-2.267 1.294-4.435 1.792-6.675.822-3.695 1.792-7.36 2.714-11.044.371-1.487 1.39-4.865 3.435-5.545.972-.324 1.885-.129 2.532.734-.321-1.044-1.245-2.24-2.49-3.393-1.58-1.461-3.88-2.769-6.808-2.769-2.658 0-4.649.683-6.285 1.737-2.33 1.5-3.86 3.895-4.878 7.328-1.519 5.123-2.438 10.234-3.947 15.39-.93 3.183-3.588 12.793-9.64 11.12 1.637 1.343 5.211 3.86 10.449 3.68 2.607-.09 5.529-1.199 7.597-2.67 1.705-1.211 2.588-2.273 3.427-3.448.866-1.213 1.744-3.005 2.102-4.445Z"/><path fill="#4F4294" d="M13.004 67.961c0-2.553-.363-4.406-1.094-5.556-.73-1.157-1.89-1.735-3.478-1.735-1.64 0-2.853.578-3.63 1.742-.784 1.163-1.172 2.963-1.172 5.4v10.716H0V57.583h3.399v2.456c.705-.935 1.502-1.637 2.391-2.098.896-.462 1.91-.696 3.05-.696 1.542 0 2.82.293 3.847.878 1.028.578 1.865 1.494 2.517 2.735.658-1.215 1.528-2.125 2.615-2.716 1.08-.598 2.404-.897 3.966-.897 2.398 0 4.321.773 5.764 2.314 1.442 1.54 2.167 3.6 2.167 6.173v12.796h-3.84V66.324c0-1.788-.396-3.178-1.193-4.166-.79-.994-1.903-1.488-3.32-1.488-1.653 0-2.846.526-3.564 1.579-.725 1.053-1.087 2.833-1.087 5.329v10.95h-3.708V67.96Zm37.785-1.897c-.474-1.729-1.297-3.068-2.47-4.01-1.172-.949-2.57-1.423-4.203-1.423-1.673 0-3.122.487-4.354 1.456-1.225.974-2.075 2.3-2.536 3.977h13.563Zm-13.682 3.385c.323 1.748 1.127 3.172 2.404 4.257 1.278 1.085 2.8 1.624 4.566 1.624 1.258 0 2.404-.299 3.445-.897 1.034-.591 1.858-1.436 2.477-2.527H54.3c-.975 2.32-2.345 4.1-4.098 5.328-1.759 1.229-3.8 1.846-6.126 1.846-1.574 0-3.004-.273-4.308-.819-1.298-.545-2.47-1.364-3.531-2.456a11.316 11.316 0 0 1-2.325-3.587 10.904 10.904 0 0 1-.837-4.178c0-1.476.257-2.853.764-4.134a11.04 11.04 0 0 1 2.246-3.502c1.054-1.144 2.247-2.002 3.57-2.58 1.325-.578 2.774-.864 4.342-.864 1.864 0 3.596.428 5.204 1.286 1.6.858 2.918 2.054 3.966 3.587a10.8 10.8 0 0 1 1.37 3.133c.296 1.137.441 2.436.441 3.892v.591H37.107Zm24.07-1.527c0 2.118.712 3.893 2.135 5.329 1.416 1.436 3.156 2.15 5.218 2.15 1.877 0 3.53-.72 4.966-2.157 1.437-1.442 2.148-3.125 2.148-5.055 0-2.054-.705-3.815-2.128-5.283-1.423-1.462-3.109-2.197-5.066-2.197-2.002 0-3.722.695-5.138 2.092-1.422 1.397-2.134 3.107-2.134 5.121Zm14.276 10.606v-2.574c-.975 1-2.069 1.762-3.267 2.275a9.732 9.732 0 0 1-3.854.773c-3.188 0-5.836-1.053-7.95-3.152-2.109-2.099-3.163-4.73-3.163-7.889 0-1.475.264-2.872.79-4.191a10.462 10.462 0 0 1 2.26-3.483c1.067-1.105 2.233-1.917 3.498-2.444 1.271-.526 2.714-.792 4.334-.792 1.443 0 2.774.253 4.006.76 1.225.507 2.358 1.28 3.386 2.307v-9.312h3.82v27.722h-3.86Zm8.3 0V50.805h3.781v27.722h-3.78Zm24.855-12.464c-.475-1.729-1.297-3.068-2.47-4.01-1.173-.949-2.569-1.423-4.203-1.423-1.673 0-3.123.487-4.354 1.456-1.226.974-2.076 2.3-2.537 3.977h13.564Zm-13.682 3.385c.322 1.748 1.126 3.172 2.404 4.257 1.278 1.085 2.8 1.624 4.565 1.624 1.258 0 2.405-.299 3.446-.897 1.034-.591 1.857-1.436 2.476-2.527h4.302c-.975 2.32-2.345 4.1-4.097 5.328-1.759 1.229-3.802 1.846-6.127 1.846-1.574 0-3.004-.273-4.308-.819-1.298-.545-2.47-1.364-3.53-2.456a11.314 11.314 0 0 1-2.326-3.587 10.904 10.904 0 0 1-.837-4.178c0-1.476.257-2.853.764-4.134a11.038 11.038 0 0 1 2.247-3.502c1.054-1.144 2.246-2.002 3.57-2.58 1.325-.578 2.774-.864 4.341-.864 1.865 0 3.597.428 5.205 1.286 1.6.858 2.918 2.054 3.966 3.587a10.845 10.845 0 0 1 1.37 3.133c.296 1.137.441 2.436.441 3.892v.591H94.926Zm32.805 9.079-4.901-7.922-5.131 7.922h-4.23l7.181-10.872-6.35-10.072h4.268l4.414 7.18 4.519-7.18h4.42l-6.719 9.935L132 78.528h-4.269Z"/></g><defs><linearGradient id="b" x1="82.075" x2="68.542" y1="3.632" y2="33.051" gradientUnits="userSpaceOnUse"><stop stop-color="#727FBD"/><stop offset="1" stop-color="#A3ACD8"/></linearGradient><linearGradient id="c" x1="98.287" x2="87.38" y1="3.581" y2="35.693" gradientUnits="userSpaceOnUse"><stop stop-color="#87D0EA"/><stop offset="1" stop-color="#6D74B6"/></linearGradient><linearGradient id="d" x1="47.438" x2="47.438" y1="10.524" y2="29.878" gradientUnits="userSpaceOnUse"><stop stop-color="#727FBD"/><stop offset="1" stop-color="#A3ACD8"/></linearGradient><linearGradient id="e" x1="40.137" x2="40.137" y1="8.534" y2="32.836" gradientUnits="userSpaceOnUse"><stop stop-color="#87D0EA"/><stop offset="1" stop-color="#6D74B6"/></linearGradient><linearGradient id="f" x1="64.825" x2="64.825" y1="2.57" y2="36.659" gradientUnits="userSpaceOnUse"><stop stop-color="#87D0EA"/><stop offset="1" stop-color="#6D74B6"/></linearGradient><clipPath id="a"><path fill="#fff" d="M0 0h132v79H0z"/></clipPath></defs></svg>